<svg width="32" height="32" viewBox="0 0 32 32" fill="none" xmlns="http://www.w3.org/2000/svg">
  <defs>
    <linearGradient id="bookGrad" x1="0%" y1="0%" x2="100%" y2="100%">
      <stop offset="0%" style="stop-color:#3b82f6"/>
      <stop offset="50%" style="stop-color:#8b5cf6"/>
      <stop offset="100%" style="stop-color:#ec4899"/>
    </linearGradient>
  </defs>
  
  <!-- Background -->
  <rect width="32" height="32" rx="6" fill="#0f172a"/>
  
  <!-- Open book -->
  <path 
    d="M16 7C16 7 12 5.5 7 5.5C4.5 5.5 3 6 3 6V24C3 24 4.5 23.5 7 23.5C12 23.5 16 25.5 16 25.5C16 25.5 20 23.5 25 23.5C27.5 23.5 29 24 29 24V6C29 6 27.5 5.5 25 5.5C20 5.5 16 7 16 7Z"
    stroke="url(#bookGrad)"
    stroke-width="1.5"
    stroke-linecap="round"
    stroke-linejoin="round"
    fill="none"
  />
  
  <!-- Center spine -->
  <path d="M16 7V25.5" stroke="url(#bookGrad)" stroke-width="1.5" stroke-linecap="round"/>
  
  <!-- AI text on right page -->
  <text 
    x="22.5" 
    y="17" 
    font-family="system-ui, sans-serif" 
    font-weight="800" 
    font-size="7" 
    text-anchor="middle"
    fill="url(#bookGrad)"
  >AI</text>
  
  <!-- Page lines left -->
  <path d="M6 11H12M6 14H11" stroke="url(#bookGrad)" stroke-width="1" stroke-linecap="round" opacity="0.5"/>
  
  <!-- Sparkles -->
  <circle cx="6" cy="4" r="1" fill="url(#bookGrad)" opacity="0.6"/>
  <circle cx="26" cy="3" r="0.8" fill="url(#bookGrad)" opacity="0.4"/>
</svg>
